<svg xmlns="http://www.w3.org/2000/svg" width="256" height="256" viewBox="0 0 100 100"><rect width="100" height="100" rx="50" fill="#e77f6e"></rect><path fill="#fff" d="M2.50 57L12.30 37.51Q11.71 37.51 11.35 37.48L11.35 37.48L9.78 37.46Q7.20 37.46 7.20 38.07L7.20 38.07Q7.37 38.07 7.52 38.30Q7.68 38.52 7.68 38.97L7.68 38.97Q7.68 39.81 7.16 40.19Q6.64 40.56 6.03 40.56L6.03 40.56Q5.27 40.56 4.93 40.07Q4.60 39.58 4.60 38.91L4.60 38.91Q4.60 37.76 5.52 36.88Q6.45 36 8.04 36L8.04 36L17.65 36L7.99 55.18Q8.77 55.18 9.19 55.21L9.19 55.21L10.67 55.24Q11.85 55.24 12.59 55.11Q13.33 54.98 13.59 54.62L13.59 54.62Q13.39 54.62 13.24 54.41Q13.08 54.20 13.08 53.75L13.08 53.75Q13.08 52.91 13.59 52.52Q14.09 52.13 14.76 52.13L14.76 52.13Q15.49 52.13 15.84 52.60Q16.19 53.08 16.19 53.75L16.19 53.75Q16.19 54.48 15.74 55.24Q15.29 55.99 14.47 56.50Q13.64 57 12.61 57L12.61 57L2.50 57ZM21.45 57.11Q19.38 57.11 18.18 56.05Q16.97 54.98 16.97 52.69L16.97 52.69Q16.97 50.78 17.76 48.46Q18.54 46.14 20.28 44.44Q22.01 42.75 24.65 42.75L24.65 42.75Q28.23 42.75 28.23 47.23L28.23 47.23L28.23 47.26Q28.31 47.28 28.54 47.28L28.54 47.28Q29.46 47.28 30.67 46.79Q31.87 46.30 32.85 45.60L32.85 45.60L33.10 46.36Q32.29 47.23 30.99 47.83Q29.69 48.43 28.15 48.68L28.15 48.68Q27.92 51.23 27.00 53.14Q26.07 55.04 24.62 56.08Q23.16 57.11 21.45 57.11L21.45 57.11ZM22.57 54.59Q23.25 54.59 23.92 53.82Q24.59 53.05 25.09 51.72Q25.60 50.39 25.82 48.77L25.82 48.77Q25.07 48.60 25.07 47.59L25.07 47.59Q25.07 46.44 25.93 46.08L25.93 46.08Q25.88 45.16 25.65 44.81Q25.43 44.46 24.87 44.46L24.87 44.46Q23.95 44.46 23.08 45.80Q22.21 47.14 21.68 49.02Q21.15 50.90 21.15 52.32L21.15 52.32Q21.15 53.67 21.45 54.13Q21.76 54.59 22.57 54.59L22.57 54.59ZM33.66 57.17Q31.59 57.17 30.44 56.09Q29.29 55.01 29.29 52.72L29.29 52.72Q29.29 50.78 30.05 48.46Q30.81 46.14 32.51 44.44Q34.22 42.75 36.85 42.75L36.85 42.75Q39.93 42.75 39.93 45.44L39.93 45.44Q39.93 47.00 39.04 48.32Q38.14 49.64 36.66 50.43Q35.17 51.23 33.49 51.34L33.49 51.34Q33.44 52.18 33.44 52.46L33.44 52.46Q33.44 53.84 33.91 54.33Q34.39 54.82 35.45 54.82L35.45 54.82Q36.97 54.82 38.04 54.12Q39.12 53.42 40.41 51.99L40.41 51.99L41.36 51.99Q38.25 57.17 33.66 57.17L33.66 57.17ZM33.72 50Q34.75 49.94 35.69 49.27Q36.63 48.60 37.20 47.56Q37.78 46.53 37.78 45.38L37.78 45.38Q37.78 44.23 37.08 44.23L37.08 44.23Q36.07 44.23 35.10 46.00Q34.14 47.76 33.72 50L33.72 50ZM44.78 64Q43.43 64 42.54 63.30Q41.64 62.60 41.64 61.28L41.64 61.28Q41.64 59.69 42.93 58.72Q44.22 57.76 46.21 57.11L46.21 57.11L46.54 55.60Q45.73 56.50 44.89 56.83Q44.05 57.17 43.18 57.17L43.18 57.17Q41.84 57.17 41.01 56.33Q40.19 55.49 40.19 53.81L40.19 53.81Q40.19 53.11 40.41 51.99L40.41 51.99L42.31 43L46.35 43L44.33 52.52Q44.25 52.86 44.25 53.22L44.25 53.22Q44.25 54.45 45.09 54.45L45.09 54.45Q45.81 54.45 46.37 53.82Q46.93 53.19 47.27 52.16L47.27 52.16L49.23 43L53.26 43L50.49 55.99Q51.83 55.54 52.65 54.65Q53.46 53.75 54.02 51.99L54.02 51.99L55.19 51.99Q54.44 54.48 53.15 55.64Q51.86 56.80 50.24 57.22L50.24 57.22L49.82 59.24Q49.26 61.96 47.89 62.98Q46.51 64 44.78 64L44.78 64ZM44.13 61.82Q44.61 61.82 45.06 61.17Q45.51 60.53 45.76 59.32L45.76 59.32L45.93 58.51Q43.18 59.52 43.18 60.89L43.18 60.89Q43.18 61.26 43.43 61.54Q43.69 61.82 44.13 61.82L44.13 61.82ZM57.21 57.17Q55.87 57.17 54.94 56.65Q54.02 56.13 53.57 55.31Q53.12 54.48 53.12 53.58L53.12 53.58Q53.12 52.66 53.56 51.97Q53.99 51.29 54.61 50.98L54.61 50.98Q55.70 49.02 56.51 47.02Q57.32 45.02 58.05 42.69L58.05 42.69L62.19 42.13Q62.33 45.72 62.67 49.89L62.67 49.89Q62.81 51.57 62.81 52.32L62.81 52.32Q62.81 52.97 62.70 53.39L62.70 53.39Q64.01 52.63 64.71 51.99L64.71 51.99L65.89 51.99Q64.10 54.06 61.61 55.49L61.61 55.49Q60.79 56.36 59.60 56.76Q58.41 57.17 57.21 57.17L57.21 57.17ZM56.31 54.96Q57.35 54.96 58.05 54.34Q58.75 53.72 58.75 52.35L58.75 52.35Q58.75 51.51 58.58 50L58.58 50Q58.30 46.81 58.22 45.72L58.22 45.72Q57.55 47.93 55.95 51.01L55.95 51.01Q56.59 51.34 56.59 51.99L56.59 51.99Q56.59 52.52 56.24 52.94Q55.89 53.36 55.36 53.36L55.36 53.36Q54.77 53.36 54.61 53.00L54.61 53.00Q54.61 54.00 55.01 54.48Q55.42 54.96 56.31 54.96L56.31 54.96ZM67.49 57.17Q66.14 57.17 65.32 56.33Q64.49 55.49 64.49 53.81L64.49 53.81Q64.49 53.11 64.71 51.99L64.71 51.99L66.39 44.12L65.47 44.12L65.69 43L66.62 43L67.46 39.14L71.60 38.58L70.65 43L72.33 43L72.11 44.12L70.43 44.12L68.63 52.52Q68.52 52.94 68.52 53.42L68.52 53.42Q68.52 53.98 68.79 54.21Q69.05 54.45 69.67 54.45L69.67 54.45Q70.48 54.45 71.18 53.77Q71.88 53.08 72.19 51.99L72.19 51.99L73.37 51.99Q72.33 55.01 70.71 56.09Q69.08 57.17 67.49 57.17L67.49 57.17ZM71.13 57L74.09 43L78.13 43L77.76 44.74Q78.71 43.90 79.48 43.45Q80.25 43 81.15 43L81.15 43Q82.05 43 82.56 43.62Q83.08 44.23 83.08 45.10L83.08 45.10Q83.08 45.91 82.55 46.53Q82.02 47.14 81.07 47.14L81.07 47.14Q80.45 47.14 80.24 46.85Q80.03 46.56 79.92 46.00L79.92 46.00Q79.83 45.63 79.75 45.46Q79.67 45.30 79.44 45.30L79.44 45.30Q78.85 45.30 78.45 45.53Q78.04 45.77 77.40 46.36L77.40 46.36L75.16 57L71.13 57ZM87.09 64Q85.74 64 84.85 63.30Q83.95 62.60 83.95 61.28L83.95 61.28Q83.95 59.69 85.24 58.72Q86.53 57.76 88.51 57.11L88.51 57.11L88.85 55.60Q88.04 56.50 87.20 56.83Q86.36 57.17 85.49 57.17L85.49 57.17Q84.15 57.17 83.32 56.33Q82.49 55.49 82.49 53.81L82.49 53.81Q82.49 53.11 82.72 51.99L82.72 51.99L84.62 43L88.65 43L86.64 52.52Q86.55 52.86 86.55 53.22L86.55 53.22Q86.55 54.45 87.39 54.45L87.39 54.45Q88.12 54.45 88.68 53.82Q89.24 53.19 89.58 52.16L89.58 52.16L91.54 43L95.57 43L92.80 55.99Q94.14 55.54 94.95 54.65Q95.77 53.75 96.33 51.99L96.33 51.99L97.50 51.99Q96.75 54.48 95.46 55.64Q94.17 56.80 92.55 57.22L92.55 57.22L92.13 59.24Q91.57 61.96 90.19 62.98Q88.82 64 87.09 64L87.09 64ZM86.44 61.82Q86.92 61.82 87.37 61.17Q87.81 60.53 88.07 59.32L88.07 59.32L88.23 58.51Q85.49 59.52 85.49 60.89L85.49 60.89Q85.49 61.26 85.74 61.54Q85.99 61.82 86.44 61.82L86.44 61.82Z"></path></svg>